<?xml version="1.0" encoding="UTF-8"?>
<svg id="_图层_1" data-name="图层 1" xmlns="http://www.w3.org/2000/svg" viewBox="0 0 16 16">
  <defs>
    <style>
      .cls-1 {
        fill: none;
      }

      .cls-2 {
        fill: #e0e0e0;
      }

      .cls-3 {
        fill: #499dd4;
      }
    </style>
  </defs>
  <path class="cls-2" d="M8.35,1c-.2-.02-.41.05-.55.2l-3.8,3.8h-1.88c-.62,0-1.12.45-1.12,1v4c0,.55.5,1,1.12,1h1.88l3.8,3.8c.44.45,1.2.13,1.2-.49V1.7c0-.37-.28-.68-.65-.71"/>
  <path class="cls-3" d="M14.86,10.44v2.36h-1.01v2.31h-2.25v-5.09c0-.57.1-1.06.3-1.47.25-.52.63-.94,1.13-1.27.51-.33,1.04-.49,1.59-.49h.24v2.36c-.05,0-.09,0-.11,0-.28,0-.51.09-.66.28-.15.19-.23.46-.23.81v.2h1.01Z"/>
  <rect class="cls-1" x="0" width="16" height="16"/>
  <rect class="cls-1" x="0" width="16" height="16"/>
  <circle class="cls-2" cx="13.86" cy="3.07" r="1"/>
  <circle class="cls-2" cx="10.92" cy="5.39" r="1"/>
</svg>