<?xml version="1.0" encoding="UTF-8"?>
<svg id="_图层_1" data-name="图层 1" xmlns="http://www.w3.org/2000/svg" xmlns:xlink="http://www.w3.org/1999/xlink" viewBox="0 0 16 16">
  <defs>
    <style>
      .cls-1 {
        fill: none;
      }

      .cls-2 {
        fill: url(#_未命名的渐变);
      }

      .cls-3 {
        fill: url(#_未命名的渐变-2);
      }
    </style>
    <linearGradient id="_未命名的渐变" data-name="未命名的渐变" x1="13.24" y1="15.11" x2="13.24" y2="6.79" gradientUnits="userSpaceOnUse">
      <stop offset="0" stop-color="#ff5f5f"/>
      <stop offset=".5" stop-color="#e1da5b"/>
      <stop offset="1" stop-color="#5fff97"/>
    </linearGradient>
    <linearGradient id="_未命名的渐变-2" data-name="未命名的渐变" x1="6.39" y1="12.86" x2="6.39" y2=".02" xlink:href="#_未命名的渐变"/>
  </defs>
  <path class="cls-2" d="M14.86,10.44v2.36h-1.01v2.31h-2.25v-5.09c0-.57.1-1.06.3-1.47.25-.52.63-.94,1.13-1.27.51-.33,1.04-.49,1.59-.49h.24v2.36c-.05,0-.09,0-.11,0-.28,0-.51.09-.66.28-.15.19-.23.46-.23.81v.2h1.01Z"/>
  <rect class="cls-1" width="16" height="16"/>
  <rect class="cls-1" width="16" height="16"/>
  <path class="cls-3" d="M10.89.94c.55,0,1,.45,1,1s-.45,1-1,1c-4.42,0-8,3.58-8,8,0,.55-.45,1-1,1s-1-.45-1-1C.89,5.42,5.37.94,10.89.94ZM10.89,4.94c.55,0,1,.45,1,1s-.45,1-1,1c-2.21,0-4,1.79-4,4,0,.55-.45,1-1,1s-1-.45-1-1c0-3.31,2.69-6,6-6Z"/>
</svg>